<svg xmlns="http://www.w3.org/2000/svg" xmlns:xlink="http://www.w3.org/1999/xlink" width="500" zoomAndPan="magnify" viewBox="0 0 375 374.999991" height="500" preserveAspectRatio="xMidYMid meet" version="1.0"><defs><clipPath id="9acb738987"><path d="M 59 37.5 L 312 37.5 L 312 90 L 59 90 Z M 59 37.5 " clip-rule="nonzero"/></clipPath><clipPath id="1f167e6977"><path d="M 49.488281 51 L 325.488281 51 L 325.488281 287.25 L 49.488281 287.25 Z M 49.488281 51 " clip-rule="nonzero"/></clipPath><clipPath id="a8263fe063"><path d="M 73.796875 298.710938 L 301.253906 298.710938 L 301.253906 349.609375 L 73.796875 349.609375 Z M 73.796875 298.710938 " clip-rule="nonzero"/></clipPath><clipPath id="2809414f9b"><path d="M 187.5 298.710938 C 124.703125 298.710938 73.796875 310.105469 73.796875 324.160156 C 73.796875 338.214844 124.703125 349.609375 187.5 349.609375 C 250.296875 349.609375 301.203125 338.214844 301.203125 324.160156 C 301.203125 310.105469 250.296875 298.710938 187.5 298.710938 Z M 187.5 298.710938 " clip-rule="nonzero"/></clipPath></defs><rect x="-37.5" width="450" fill="#ffffff" y="-37.499999" height="449.999989" fill-opacity="1"/><rect x="-37.5" width="450" fill="#d7ceff" y="-37.499999" height="449.999989" fill-opacity="1"/><g clip-path="url(#9acb738987)"><path fill="#ffebc3" d="M 189.707031 74.125 C 191.917969 76.828125 192.65625 80.757812 191.425781 84.035156 C 190.527344 86.574219 188.558594 89.441406 188.070312 89.03125 C 186.921875 88.210938 59.152344 55.859375 59.152344 55.859375 C 59.480469 54.46875 71.847656 44.722656 77.992188 39.890625 C 80.121094 38.167969 82.90625 37.515625 85.609375 37.925781 C 103.382812 40.871094 171.6875 52.75 189.707031 74.125 Z M 294.625 39.972656 C 292.660156 38.25 290.039062 37.515625 287.417969 38.007812 C 270.871094 41.035156 208.054688 53.320312 193.308594 75.273438 C 191.835938 77.402344 191.589844 80.59375 192.328125 83.050781 C 193.226562 85.917969 195.277344 89.441406 195.847656 88.949219 C 196.832031 88.210938 311.414062 55.859375 311.414062 55.859375 C 311.167969 54.46875 300.191406 44.804688 294.625 39.972656 Z M 294.625 39.972656 " fill-opacity="1" fill-rule="nonzero"/></g><g clip-path="url(#1f167e6977)"><path fill="#5f519b" d="M 315.34375 52.09375 L 211.65625 69.457031 C 210.019531 69.703125 208.625 70.683594 207.808594 72.078125 C 205.921875 75.191406 201.089844 80.757812 190.933594 81.085938 C 181.84375 81.414062 178.160156 76.582031 176.765625 73.46875 C 176.027344 71.832031 174.390625 70.601562 172.589844 70.359375 L 59.726562 51.683594 C 55.140625 50.863281 50.636719 53.894531 49.652344 58.480469 C 49.570312 58.808594 49.570312 59.054688 49.570312 59.382812 C 49.488281 59.710938 49.488281 60.039062 49.488281 60.367188 L 49.488281 246.285156 C 49.488281 250.378906 52.355469 253.984375 56.371094 254.882812 L 167.59375 280.109375 C 168.410156 280.273438 169.148438 280.601562 169.804688 281.175781 C 172.179688 282.976562 178.894531 287.398438 190.691406 286.988281 C 202.074219 286.582031 207.890625 282.320312 209.9375 280.4375 C 210.671875 279.78125 211.492188 279.292969 212.394531 279.046875 C 224.351562 276.015625 300.519531 256.851562 318.785156 252.015625 C 322.472656 251.035156 325.089844 247.675781 325.089844 243.828125 C 325.171875 214.75 325.335938 96.648438 325.5 60.9375 C 325.5 56.105469 321.652344 52.175781 316.820312 52.09375 C 316.410156 51.929688 315.835938 52.011719 315.34375 52.09375 Z M 315.34375 52.09375 " fill-opacity="1" fill-rule="nonzero"/></g><path fill="#ffebc3" d="M 306.335938 95.828125 L 229.839844 109.097656 C 226.644531 109.671875 224.269531 112.457031 224.105469 115.894531 L 223.777344 122.773438 C 223.53125 127.445312 227.464844 131.128906 231.804688 130.308594 L 308.300781 116.140625 C 311.496094 115.566406 313.789062 112.78125 313.953125 109.34375 L 314.28125 103.363281 C 314.609375 98.695312 310.675781 95.09375 306.335938 95.828125 Z M 306.335938 95.828125 " fill-opacity="1" fill-rule="nonzero"/><path fill="#ffebc3" d="M 199.207031 162.824219 C 199.207031 163.902344 199.191406 164.980469 199.160156 166.054688 C 199.128906 167.125 199.085938 168.191406 199.023438 169.25 C 198.960938 170.304688 198.886719 171.351562 198.792969 172.382812 C 198.703125 173.414062 198.597656 174.429688 198.476562 175.425781 C 198.359375 176.421875 198.222656 177.394531 198.074219 178.347656 C 197.929688 179.296875 197.765625 180.222656 197.59375 181.117188 C 197.417969 182.015625 197.230469 182.878906 197.03125 183.710938 C 196.832031 184.546875 196.621094 185.34375 196.402344 186.105469 C 196.179688 186.871094 195.945312 187.59375 195.703125 188.277344 C 195.460938 188.960938 195.210938 189.601562 194.949219 190.203125 C 194.6875 190.800781 194.417969 191.355469 194.140625 191.863281 C 193.863281 192.371094 193.582031 192.832031 193.292969 193.246094 C 193 193.65625 192.707031 194.019531 192.40625 194.332031 C 192.105469 194.644531 191.800781 194.90625 191.496094 195.117188 C 191.1875 195.328125 190.875 195.484375 190.5625 195.59375 C 190.25 195.699219 189.9375 195.75 189.625 195.75 C 189.3125 195.75 188.996094 195.699219 188.683594 195.59375 C 188.375 195.484375 188.0625 195.328125 187.753906 195.117188 C 187.449219 194.90625 187.144531 194.644531 186.84375 194.332031 C 186.542969 194.019531 186.246094 193.65625 185.957031 193.246094 C 185.667969 192.832031 185.382812 192.371094 185.109375 191.863281 C 184.832031 191.355469 184.5625 190.800781 184.300781 190.203125 C 184.039062 189.601562 183.789062 188.960938 183.546875 188.277344 C 183.304688 187.59375 183.070312 186.871094 182.847656 186.105469 C 182.625 185.34375 182.417969 184.546875 182.21875 183.710938 C 182.019531 182.878906 181.832031 182.015625 181.65625 181.117188 C 181.484375 180.222656 181.320312 179.296875 181.171875 178.347656 C 181.027344 177.394531 180.890625 176.421875 180.773438 175.425781 C 180.652344 174.429688 180.546875 173.414062 180.453125 172.382812 C 180.363281 171.351562 180.289062 170.304688 180.226562 169.25 C 180.164062 168.191406 180.117188 167.125 180.089844 166.054688 C 180.058594 164.980469 180.042969 163.902344 180.042969 162.824219 C 180.042969 161.746094 180.058594 160.671875 180.089844 159.597656 C 180.117188 158.523438 180.164062 157.460938 180.226562 156.402344 C 180.289062 155.34375 180.363281 154.300781 180.453125 153.269531 C 180.546875 152.234375 180.652344 151.222656 180.773438 150.226562 C 180.890625 149.230469 181.027344 148.257812 181.171875 147.304688 C 181.320312 146.355469 181.484375 145.429688 181.65625 144.535156 C 181.832031 143.636719 182.019531 142.773438 182.21875 141.9375 C 182.417969 141.105469 182.625 140.308594 182.847656 139.542969 C 183.070312 138.78125 183.304688 138.058594 183.546875 137.375 C 183.789062 136.691406 184.039062 136.046875 184.300781 135.449219 C 184.5625 134.851562 184.832031 134.296875 185.109375 133.789062 C 185.382812 133.28125 185.667969 132.820312 185.957031 132.40625 C 186.246094 131.996094 186.542969 131.632812 186.84375 131.320312 C 187.144531 131.003906 187.449219 130.742188 187.753906 130.535156 C 188.0625 130.324219 188.375 130.164062 188.683594 130.058594 C 188.996094 129.953125 189.3125 129.902344 189.625 129.902344 C 189.9375 129.902344 190.25 129.953125 190.5625 130.058594 C 190.875 130.164062 191.1875 130.324219 191.496094 130.535156 C 191.800781 130.742188 192.105469 131.003906 192.40625 131.320312 C 192.707031 131.632812 193 131.996094 193.292969 132.40625 C 193.582031 132.820312 193.863281 133.28125 194.140625 133.789062 C 194.417969 134.296875 194.6875 134.851562 194.949219 135.449219 C 195.210938 136.046875 195.460938 136.691406 195.703125 137.375 C 195.945312 138.058594 196.179688 138.78125 196.402344 139.542969 C 196.621094 140.308594 196.832031 141.105469 197.03125 141.9375 C 197.230469 142.773438 197.417969 143.636719 197.59375 144.535156 C 197.765625 145.429688 197.929688 146.355469 198.074219 147.304688 C 198.222656 148.257812 198.359375 149.230469 198.476562 150.226562 C 198.597656 151.222656 198.703125 152.234375 198.792969 153.269531 C 198.886719 154.300781 198.960938 155.34375 199.023438 156.402344 C 199.085938 157.460938 199.128906 158.523438 199.160156 159.597656 C 199.191406 160.671875 199.207031 161.746094 199.207031 162.824219 Z M 199.207031 162.824219 " fill-opacity="1" fill-rule="nonzero"/><path fill="#ffebc3" d="M 171.277344 76.746094 C 169.640625 76.746094 168.410156 77.972656 168.410156 79.53125 L 165.710938 275.03125 C 165.710938 276.589844 166.9375 277.898438 168.574219 277.898438 C 170.132812 277.898438 171.441406 276.671875 171.441406 275.113281 L 174.144531 79.613281 C 174.144531 78.054688 172.835938 76.746094 171.277344 76.746094 Z M 171.277344 76.746094 " fill-opacity="1" fill-rule="nonzero"/><path fill="#ffebc3" d="M 209.363281 76.335938 C 207.808594 76.335938 206.496094 77.648438 206.496094 79.203125 L 206.742188 273.558594 C 206.742188 275.113281 208.054688 276.425781 209.609375 276.425781 C 211.164062 276.425781 212.476562 275.113281 212.476562 273.558594 L 212.230469 79.203125 C 212.230469 77.566406 210.917969 76.335938 209.363281 76.335938 Z M 209.363281 76.335938 " fill-opacity="1" fill-rule="nonzero"/><g clip-path="url(#a8263fe063)"><g clip-path="url(#2809414f9b)"><path fill="#5f519b" d="M 73.796875 298.710938 L 301.253906 298.710938 L 301.253906 349.609375 L 73.796875 349.609375 Z M 73.796875 298.710938 " fill-opacity="1" fill-rule="nonzero"/></g></g></svg>